<svg width="26" height="34" viewBox="0 0 26 34" fill="none" xmlns="http://www.w3.org/2000/svg">
<g id="Vector">
<path d="M19.3426 0C19.4847 1.97392 18.898 3.92902 17.707 5.4501C17.1367 6.20474 16.4129 6.81187 15.5901 7.22576C14.7673 7.63965 13.867 7.84952 12.9569 7.83955C12.8988 6.89032 13.0172 5.93822 13.3052 5.03767C13.5932 4.13713 14.0452 3.30581 14.6354 2.59123C15.8424 1.12851 17.5231 0.203319 19.3426 0Z" fill="white"/>
<path d="M22.6617 14.3667C22.057 15.5001 21.7316 16.7779 21.7159 18.0811C21.7173 19.547 22.1244 20.98 22.8862 22.2015C23.6481 23.4229 24.731 24.3788 26 24.9498C25.5011 26.6742 24.749 28.3038 23.7716 29.7783C22.4591 31.8672 21.0829 33.9081 18.8986 33.9458C17.8598 33.9713 17.1585 33.6535 16.4278 33.3223C15.6656 32.9769 14.8714 32.6169 13.6286 32.6169C12.3105 32.6169 11.4807 32.9884 10.6804 33.3468C9.98884 33.6564 9.31927 33.9562 8.37563 33.9979C6.29543 34.0798 4.70567 31.7683 3.3454 29.699C0.626607 25.473 -1.49043 17.7895 1.34776 12.5615C2.00297 11.3088 2.952 10.2581 4.10239 9.51165C5.25277 8.76523 6.56527 8.34858 7.91201 8.30228C9.09181 8.27646 10.2239 8.76025 11.2164 9.18441C11.9755 9.50879 12.6529 9.79828 13.2077 9.79828C13.6953 9.79828 14.3539 9.52022 15.1214 9.19615C16.3303 8.68566 17.8096 8.06104 19.317 8.22939C20.4723 8.26785 21.6032 8.59236 22.6199 9.17717C23.6367 9.76198 24.5113 10.591 25.1742 11.5983C24.1307 12.2809 23.2663 13.2332 22.6617 14.3667Z" fill="white"/>
</g>
</svg>
